<svg width="412" height="136" viewBox="0 0 412 136" fill="none" xmlns="http://www.w3.org/2000/svg">
<g clip-path="url(#clip0_1073_4569)">
<path d="M393.93 0H18.0702C8.09029 0 0 8.45684 0 18.8889V117.111C0 127.543 8.09029 136 18.0702 136H393.93C403.91 136 412 127.543 412 117.111V18.8889C412 8.45684 403.91 0 393.93 0Z" fill="#FF4D00"/>
<mask id="mask0_1073_4569" style="mask-type:luminance" maskUnits="userSpaceOnUse" x="41" y="30" width="333" height="79">
<path d="M373.37 30.2236H41.5859V108.46H373.37V30.2236Z" fill="white"/>
</mask>
<g mask="url(#mask0_1073_4569)">
<path d="M66.9105 44.2673C64.3399 44.1046 61.7685 44.5719 59.4198 45.6285C57.0711 46.6852 55.0161 48.2992 53.4336 50.3303V30.2236H41.5859V89.9323H53.2528V84.5004C54.7119 86.6252 56.6922 88.34 59.0042 89.4809C61.3162 90.6217 63.8824 91.1504 66.4573 91.0162C79.127 91.0162 87.4464 80.974 87.4464 67.5069C87.4464 54.3145 79.9466 44.2698 66.9129 44.2698M64.3849 80.2588C58.3212 80.2588 53.2429 75.6436 53.2429 67.5935C53.2429 59.4593 58.3138 55.0321 64.3849 55.0321C70.5353 55.0321 75.4229 59.4593 75.4229 67.5935C75.4229 75.7277 70.5353 80.2588 64.3849 80.2588Z" fill="#F4F5EB"/>
<path d="M129.965 60.9928C129.965 52.0395 124.718 44.0859 110.61 44.0859C98.678 44.0859 92.2577 51.7772 91.5248 58.731L102.194 60.9928C102.371 58.9095 103.365 56.9806 104.959 55.6268C106.553 54.2731 108.618 53.6045 110.704 53.7668C115.775 53.7668 118.206 56.385 118.206 59.5501C118.206 61.0844 117.399 62.3465 114.864 62.7028L103.92 64.3386C96.4917 65.4299 90.6211 69.8596 90.6211 77.8106C90.6211 84.7744 96.4075 91.1862 105.908 91.1862C108.48 91.3149 111.041 90.7744 113.341 89.6176C115.641 88.4607 117.602 86.7271 119.031 84.5863C119.027 86.3708 119.176 88.1523 119.474 89.9118H130.519C130.169 87.5793 129.984 85.2249 129.967 82.8664L129.965 60.9928ZM118.206 71.9333C118.206 79.7879 113.502 82.2353 108.436 82.2353C107.709 82.3147 106.974 82.2407 106.278 82.0181C105.582 81.7955 104.941 81.4292 104.395 80.943C103.85 80.4569 103.412 79.8616 103.112 79.1959C102.811 78.5301 102.653 77.8086 102.65 77.0781C102.656 75.6076 103.239 74.1981 104.272 73.151C105.305 72.104 106.707 71.5026 108.178 71.4755L118.206 69.9387V71.9333Z" fill="#F4F5EB"/>
<path d="M161.17 44.2724C158.635 44.1902 156.122 44.7618 153.873 45.9321C151.624 47.1023 149.714 48.8318 148.327 50.954V45.4454H136.66V89.9324H148.689V64.3469C148.689 59.1847 151.761 55.1189 157.01 55.1189C162.807 55.1189 165.251 59.0066 165.251 63.9757V89.9324H177.279V61.9019C177.279 52.1295 172.203 44.2724 161.17 44.2724Z" fill="#F4F5EB"/>
<path d="M193.915 52.0478V45.4479H182.238V89.9324H194.279V69.5857C194.279 60.0014 199.617 57.012 205.768 57.012C206.981 57.0137 208.192 57.138 209.38 57.3832V45.2573C208.452 45.1488 207.519 45.0885 206.585 45.0767C202.774 45.0767 196.629 46.1581 193.915 52.0404" fill="#F4F5EB"/>
<path d="M232.362 44.0859C220.955 44.0859 210.469 53.3115 210.469 67.5037C210.469 82.5199 221.234 91.2604 233.446 91.2604C244.39 91.2604 251.434 84.8486 253.712 77.1697L243.664 74.1754C242.99 76.2826 241.623 78.1 239.784 79.332C237.946 80.564 235.744 81.138 233.538 80.9609C230.719 81.0691 227.969 80.0752 225.871 78.1901C223.773 76.3051 222.493 73.6773 222.302 70.8643H254.16C254.16 70.6811 254.339 68.8697 254.339 67.1523C254.339 52.866 246.096 44.0934 232.354 44.0934M222.581 62.6286C222.8 60.1695 223.956 57.8883 225.809 56.2559C227.662 54.6235 230.071 53.7644 232.54 53.8559C239.403 53.8559 242.31 58.2014 242.486 62.6286H222.581Z" fill="#F4F5EB"/>
<path d="M290.429 50.7005C288.877 47.7161 284.811 44.645 277.759 44.645C265.558 44.645 257.04 54.5907 257.04 66.3354C257.04 78.8152 265.912 87.9393 277.759 87.9393C280.136 88.1106 282.517 87.6786 284.681 86.6835C286.846 85.6884 288.723 84.1624 290.139 82.2475V85.5017C290.139 94.0863 285.898 97.8948 278.289 97.8948C275.821 98.0294 273.39 97.2432 271.469 95.6887C269.548 94.1341 268.272 91.9219 267.89 89.481L257.035 92.364C258.305 100.869 266.444 108.464 278.653 108.464C295.396 108.464 301.997 97.3529 301.997 85.133V45.4468H290.424L290.429 50.7005ZM279.839 77.6372C273.597 77.6372 269.17 73.2942 269.17 66.3379C269.088 64.898 269.3 63.4565 269.795 62.1016C270.289 60.7467 271.055 59.507 272.046 58.4585C273.037 57.4099 274.231 56.5746 275.556 56.0037C276.882 55.4328 278.309 55.1383 279.752 55.1383C281.195 55.1383 282.623 55.4328 283.948 56.0037C285.274 56.5746 286.468 57.4099 287.459 58.4585C288.45 59.507 289.216 60.7467 289.71 62.1016C290.205 63.4565 290.417 64.898 290.335 66.3379C290.335 73.2101 285.99 77.6372 279.839 77.6372Z" fill="#F4F5EB"/>
<path d="M320.817 45.4473H308.789V89.9318H320.817V45.4473Z" fill="#F4F5EB"/>
<path d="M350.042 44.0876C346.933 44.0106 343.841 44.5703 340.957 45.7321C338.073 46.894 335.457 48.6334 333.27 50.8435C331.083 53.0535 329.372 55.6874 328.242 58.5831C327.112 61.4787 326.587 64.5748 326.698 67.681C326.667 70.7646 327.247 73.8239 328.405 76.682C329.564 79.5401 331.278 82.1402 333.449 84.3319C335.619 86.5237 338.203 88.2636 341.051 89.4511C343.898 90.6385 346.953 91.2499 350.038 91.2499C353.124 91.2499 356.179 90.6385 359.026 89.4511C361.874 88.2636 364.457 86.5237 366.628 84.3319C368.798 82.1402 370.513 79.5401 371.671 76.682C372.83 73.8239 373.41 70.7646 373.378 67.681C373.49 64.5753 372.965 61.4795 371.835 58.5842C370.705 55.689 368.994 53.0553 366.808 50.8453C364.622 48.6354 362.007 46.8958 359.123 45.7336C356.239 44.5715 353.15 44.0113 350.042 44.0876ZM350.04 80.3364C344.159 80.3364 338.737 75.9934 338.737 67.681C338.737 59.2671 344.162 55.0231 350.04 55.0231C355.918 55.0231 361.352 59.2696 361.352 67.681C361.352 76.0924 355.93 80.3364 350.04 80.3364Z" fill="#F4F5EB"/>
</g>
</g>
<defs>
<clipPath id="clip0_1073_4569">
<rect width="412" height="136" fill="white"/>
</clipPath>
</defs>
</svg>
